<svg id="visual" viewBox="0 0 960 540" width="960" height="540" xmlns="http://www.w3.org/2000/svg" xmlns:xlink="http://www.w3.org/1999/xlink" version="1.1"><path d="M0 386L137 500L274 470L411 477L549 490L686 494L823 459L960 511L960 541L823 541L686 541L549 541L411 541L274 541L137 541L0 541Z" fill="#76d5c0"></path><path d="M0 518L137 473L274 456L411 408L549 495L686 517L823 516L960 524L960 541L823 541L686 541L549 541L411 541L274 541L137 541L0 541Z" fill="#6bb9a5"></path><path d="M0 444L137 448L274 469L411 469L549 422L686 497L823 516L960 458L960 541L823 541L686 541L549 541L411 541L274 541L137 541L0 541Z" fill="#609d8b"></path><path d="M0 476L137 481L274 518L411 470L549 500L686 441L823 500L960 511L960 541L823 541L686 541L549 541L411 541L274 541L137 541L0 541Z" fill="#548373"></path><path d="M0 482L137 523L274 467L411 526L549 496L686 525L823 481L960 502L960 541L823 541L686 541L549 541L411 541L274 541L137 541L0 541Z" fill="#48695c"></path><path d="M0 493L137 516L274 518L411 481L549 510L686 484L823 511L960 472L960 541L823 541L686 541L549 541L411 541L274 541L137 541L0 541Z" fill="#3a5147"></path><path d="M0 488L137 501L274 512L411 530L549 535L686 506L823 502L960 532L960 541L823 541L686 541L549 541L411 541L274 541L137 541L0 541Z" fill="#2d3a33"></path><path d="M0 518L137 525L274 527L411 521L549 522L686 529L823 533L960 506L960 541L823 541L686 541L549 541L411 541L274 541L137 541L0 541Z" fill="#1f2421"></path></svg>